<svg id="Layer_1" data-name="Layer 1" xmlns="http://www.w3.org/2000/svg" viewBox="0 0 835.94 628.43"><defs><style>.cls-1{fill:#fff;}</style></defs><title>email</title><path class="cls-1" d="M435,119.17c107.61,0,215.23.65,322.84-.21C843,118.28,850,180.41,850,245.56v10s-16.77,12.35-23.49,17.32C718.4,352.84,610.64,433.26,501.77,512.16c-53.31,38.63-84.57,37.12-139.69-3.26Q204.31,393.33,47.39,276.61c-14.3-10.59-30.63-21-30.63-21S13.41,197.85,20,176.16c9.76-32,39.4-55.34,75.05-56.54,35-1.18,70.1-.43,105.16-.45Q317.62,119.13,435,119.17Z" transform="translate(-15.91 -118.95)"/><path class="cls-1" d="M16.76,313.22c.34,0,34.82,23.87,34.33,23.84s173,127.87,259.4,192c15.72,11.66,32.14,22.21,48.51,32.93,52.65,34.45,105.07,32.25,155.41-2.46,55-37.91,108.24-78.33,162.08-117.89,47.28-34.73,94.26-69.88,141.56-104.6,7.58-5.56,33.11-24.73,33.2-25-.09.29.42,30.54.43,39.23.12,105.93.38,211.86-.09,317.79-.22,47.5-30.73,78.08-78.31,78.15q-338.77.48-677.55,0c-47.62-.06-78.18-30.6-78.4-78-.48-105.93-.22-211.86-.1-317.79C17.24,342.62,17.1,313.27,16.76,313.22Z" transform="translate(-15.91 -118.95)"/></svg>