<svg id="Layer_1" data-name="Layer 1" xmlns="http://www.w3.org/2000/svg" xmlns:xlink="http://www.w3.org/1999/xlink" viewBox="0 0 1090.91 1090.91"><defs><style>.cls-1{fill:url(#linear-gradient);}.cls-2{fill:#fff;}</style><linearGradient id="linear-gradient" x1="918.01" y1="1190.74" x2="172.9" y2="-99.83" gradientUnits="userSpaceOnUse"><stop offset="0" stop-color="#00a683"/><stop offset="0.03" stop-color="#00a281"/><stop offset="0.26" stop-color="#018872"/><stop offset="0.49" stop-color="#027667"/><stop offset="0.73" stop-color="#036b61"/><stop offset="1" stop-color="#03675f"/></linearGradient></defs><rect class="cls-1" width="1090.91" height="1090.91"/><path class="cls-2" d="M434.9,500.53c36.87,19,68.56,65.08,68.56,118.68,0,98.48-89.28,129-172.84,129-31.68,0-64.49-12.12-92.16-27.1l-62.22,27.1h-14.4l-4.05-142.88h18.45c28.82,68,85.28,127.29,163.62,127.29,24.19,0,55.3-9.79,55.3-38.57,0-34-37.46-48.36-63.37-59.91L288,614.62C204.46,577.14,161.84,527,161.84,464.25c0-84.13,60.49-132.49,141.14-132.49,32.27,0,63.37,9.79,92.18,23.6l62.21-23.6h13.27l4.6,131.91H459.67c-28.8-62.23-81.8-116.34-154.39-116.34-21.88,0-49,11.49-49,37.42,0,31.12,38,43.77,61.06,55.89Z" transform="translate(5.46 5.46)"/><path class="cls-2" d="M503.46,748.24V732.65h14.38c24.74,0,32.24-28.2,32.24-54.69V395.1c-11-14.37-20.13-31.09-38-31.09h-8.6v-15H722.34L878.45,562.76V393.41c0-16.13-17.87-28.81-39.19-28.81H827.77V349.05H946.41V364.6H929.17c-30,0-29.39,22.48-29.39,69.7V748.24H803L570.24,428V678c0,26.49,5.76,54.69,33.4,54.69h18.43v15.59Z" transform="translate(5.46 5.46)"/></svg>